<svg width="50" height="30" viewBox="0 0 50 30" fill="none" xmlns="http://www.w3.org/2000/svg">
<path d="M48 1H2C0.89543 1 0 1.83574 0 2.86667V27.1333C0 28.1643 0.89543 29 2 29H48C49.1046 29 50 28.1643 50 27.1333V2.86667C50 1.83574 49.1046 1 48 1Z" fill="#000066"/>
<g opacity="0.01">
<path d="M41.3475 4H8.5V25.725H41.3475V4Z" fill="white"/>
</g>
<path d="M29.2587 7.78516H20.5938V21.9377H29.2587V7.78516Z" fill="#FF5F00"/>
<path d="M21.4831 14.8622C21.4809 12.1009 22.7485 9.492 24.9206 7.78715C21.2305 4.88718 15.9315 5.3096 12.7474 8.75755C9.56336 12.2055 9.56336 17.5214 12.7474 20.9693C15.9315 24.4173 21.2305 24.8397 24.9206 21.9397C22.7478 20.2343 21.4801 17.6243 21.4831 14.8622Z" fill="#EB001B"/>
<path fill-rule="evenodd" clip-rule="evenodd" d="M38.6256 20.152V20.4523H38.5706V20.152H38.4531V20.0898H38.7506V20.152H38.6256ZM39.2031 20.0898V20.4523H39.1406V20.1778L39.0431 20.4135H38.9756L38.8781 20.1778V20.4523H38.8131V20.0898H38.9031L39.0081 20.3487L39.1131 20.0898H39.2031Z" fill="#F79E1B"/>
<path d="M39.4844 14.8627C39.4843 18.3085 37.5167 21.4519 34.4173 22.9577C31.3179 24.4635 27.6308 24.0674 24.9219 21.9377C27.093 20.2314 28.3607 17.6228 28.3607 14.8614C28.3607 12.1 27.093 9.49149 24.9219 7.78519C27.6308 5.65549 31.3179 5.25944 34.4173 6.76524C37.5167 8.27104 39.4843 11.4144 39.4844 14.8602V14.8627Z" fill="#F79E1B"/>
</svg>
