<svg width="23" height="18" viewBox="0 0 23 18" fill="none" xmlns="http://www.w3.org/2000/svg">
<path d="M22.8 4.3C22.8 4.1 22.5 2.5 21.8 1.8C20.9 0.8 19.9 0.7 19.4 0.7H19.3C16.2 0.5 11.6 0.5 11.5 0.5C11.5 0.5 6.8 0.5 3.7 0.7H3.6C3.1 0.7 2.1 0.8 1.2 1.8C0.5 2.6 0.2 4.2 0.2 4.4C0.2 4.5 0 6.3 0 8.2V9.9C0 11.8 0.2 13.6 0.2 13.7C0.2 13.9 0.5 15.5 1.2 16.2C2 17.1 3 17.2 3.6 17.3C3.7 17.3 3.8 17.3 3.9 17.3C5.7 17.5 11.2 17.5 11.4 17.5C11.4 17.5 16.1 17.5 19.2 17.3H19.3C19.8 17.2 20.8 17.1 21.7 16.2C22.4 15.4 22.7 13.8 22.7 13.6C22.7 13.5 22.9 11.7 22.9 9.8V8.1C23 6.3 22.8 4.4 22.8 4.3ZM15.4 9.2L9.4 12.4C9.3 12.4 9.3 12.5 9.2 12.5C9.1 12.5 9 12.5 9 12.4C8.9 12.3 8.8 12.2 8.8 12V5.5C8.8 5.3 8.9 5.2 9 5.1C9.1 5 9.3 5 9.5 5.1L15.5 8.3C15.7 8.4 15.8 8.5 15.8 8.7C15.8 8.9 15.6 9.1 15.4 9.2Z" fill="#1E1E1E"/>
</svg>
