<svg width="95" height="25" viewBox="0 0 95 25" fill="none" xmlns="http://www.w3.org/2000/svg">
<path d="M8.02225 24L0.91825 7.072H5.87825L10.3903 19.648L9.36625 19.84L14.1023 7.072H18.9663L11.5103 24H8.02225ZM29.304 24.32C27.4693 24.32 25.8587 23.9467 24.472 23.2C23.1067 22.4533 22.04 21.4293 21.272 20.128C20.5253 18.8267 20.152 17.344 20.152 15.68C20.152 14.3573 20.3653 13.152 20.792 12.064C21.2187 10.9547 21.816 10.0053 22.584 9.216C23.352 8.42667 24.2587 7.81867 25.304 7.392C26.3707 6.944 27.5333 6.72 28.792 6.72C29.944 6.72 31 6.93333 31.96 7.36C32.9413 7.76533 33.784 8.352 34.488 9.12C35.2133 9.86667 35.768 10.752 36.152 11.776C36.536 12.8 36.7173 13.92 36.696 15.136L36.664 16.544H23.064L22.328 13.728H32.92L32.376 14.304V13.632C32.3333 13.0347 32.1413 12.512 31.8 12.064C31.48 11.616 31.064 11.264 30.552 11.008C30.04 10.7307 29.4747 10.592 28.856 10.592C27.896 10.592 27.0853 10.784 26.424 11.168C25.784 11.5307 25.2933 12.064 24.952 12.768C24.632 13.4507 24.472 14.304 24.472 15.328C24.472 16.3307 24.6853 17.216 25.112 17.984C25.5387 18.7307 26.1467 19.3067 26.936 19.712C27.7467 20.1173 28.696 20.32 29.784 20.32C30.5307 20.32 31.2133 20.2027 31.832 19.968C32.4507 19.7333 33.1227 19.328 33.848 18.752L35.992 21.792C35.3947 22.3253 34.7227 22.784 33.976 23.168C33.2293 23.552 32.4613 23.84 31.672 24.032C30.8827 24.224 30.0933 24.32 29.304 24.32ZM40.0853 24V0.32H44.6293V24H40.0853ZM49.2415 24V0.32H53.7855V24H49.2415ZM65.8933 24.32C64.1653 24.32 62.6293 23.9467 61.2853 23.2C59.9413 22.432 58.8746 21.3867 58.0853 20.064C57.3173 18.7413 56.9333 17.2373 56.9333 15.552C56.9333 13.8453 57.3173 12.3307 58.0853 11.008C58.8746 9.664 59.9413 8.61867 61.2853 7.872C62.6293 7.104 64.1653 6.72 65.8933 6.72C67.6213 6.72 69.1573 7.104 70.5013 7.872C71.8453 8.61867 72.9013 9.664 73.6693 11.008C74.4586 12.3307 74.8533 13.8453 74.8533 15.552C74.8533 17.2373 74.4586 18.7413 73.6693 20.064C72.9013 21.3867 71.8453 22.432 70.5013 23.2C69.1573 23.9467 67.6213 24.32 65.8933 24.32ZM65.8933 20.384C66.7253 20.384 67.4719 20.1707 68.1333 19.744C68.7946 19.3173 69.3066 18.7413 69.6693 18.016C70.0533 17.2907 70.2346 16.4693 70.2133 15.552C70.2346 14.592 70.0533 13.7493 69.6693 13.024C69.3066 12.2773 68.7946 11.7013 68.1333 11.296C67.4719 10.8693 66.7253 10.656 65.8933 10.656C65.0613 10.656 64.3039 10.8693 63.6213 11.296C62.9599 11.7227 62.4373 12.2987 62.0533 13.024C61.6906 13.7493 61.5199 14.592 61.5413 15.552C61.5199 16.4693 61.6906 17.2907 62.0533 18.016C62.4373 18.7413 62.9599 19.3173 63.6213 19.744C64.3039 20.1707 65.0613 20.384 65.8933 20.384ZM83.1473 24L76.0433 7.072H81.0033L85.5153 19.648L84.4913 19.84L89.2273 7.072H94.0913L86.6353 24H83.1473Z" fill="#180459"/>
</svg>
