<svg width="19" height="25" viewBox="0 0 19 25" fill="none" xmlns="http://www.w3.org/2000/svg">
<path d="M18.9997 18.1811V0.651579C18.9997 0.449005 18.9082 0.257926 18.752 0.134579C18.5959 0.0112322 18.3929 -0.0300907 18.2024 0.0221065L5.8064 3.43947C5.52975 3.5159 5.33706 3.77378 5.33706 4.06894V18.9336C4.7756 18.4797 4.06977 18.2063 3.30202 18.2063C1.48112 18.2063 0 19.73 0 21.6031C0 23.4763 1.48112 25 3.30202 25C5.12262 25 6.60374 23.4763 6.60374 21.6031V8.49265L17.733 5.42482V15.5163C17.1715 15.0623 16.4657 14.7889 15.698 14.7889C13.8771 14.7889 12.396 16.3126 12.396 18.1858C12.396 20.059 13.8771 21.5826 15.698 21.5826C17.5189 21.5826 19 20.059 19 18.1858C19 18.1845 18.9997 18.183 18.9997 18.1811ZM3.30172 23.6966C2.1797 23.6966 1.26638 22.7574 1.26638 21.6028C1.26638 20.4483 2.1794 19.509 3.30172 19.509C4.42404 19.509 5.33676 20.4483 5.33676 21.6028C5.33676 22.7574 4.42404 23.6966 3.30172 23.6966ZM6.60374 7.14329V4.56854L17.733 1.50103V4.07546L6.60374 7.14329ZM15.698 20.2799C14.576 20.2799 13.6626 19.3406 13.6626 18.1861C13.6626 17.0315 14.5757 16.0923 15.698 16.0923C16.8185 16.0923 17.7306 17.0291 17.733 18.1814V18.1861C17.733 18.1867 17.7333 18.187 17.7333 18.1876C17.7321 19.3413 16.8194 20.2799 15.698 20.2799Z" fill="#898989"/>
</svg>
