<svg width="50" height="28" viewBox="0 0 50 28" fill="none" xmlns="http://www.w3.org/2000/svg">
<g clip-path="url(#clip0_779_2100)">
<path d="M48 0H2C0.89543 0 0 0.835735 0 1.86667V26.1333C0 27.1643 0.89543 28 2 28H48C49.1046 28 50 27.1643 50 26.1333V1.86667C50 0.835735 49.1046 0 48 0Z" fill="black"/>
<path fill-rule="evenodd" clip-rule="evenodd" d="M15.9429 12.5803C15.9613 14.365 17.6923 14.9588 17.7115 14.9664C17.6969 15.0085 17.435 15.8128 16.7996 16.644C16.2503 17.3622 15.68 18.0781 14.7823 18.093C13.8998 18.1077 13.6161 17.625 12.6071 17.625C11.5984 17.625 11.283 18.0781 10.4477 18.1077C9.58106 18.137 8.92086 17.3305 8.36696 16.6147C7.23511 15.1504 6.37016 12.4772 7.53171 10.6726C8.10871 9.77647 9.13951 9.20891 10.2588 9.19458C11.1099 9.17993 11.9135 9.70689 12.434 9.70689C12.9539 9.70689 13.9305 9.07315 14.957 9.16621C15.3867 9.18235 16.5928 9.32151 17.3673 10.336C17.3046 10.3709 15.9277 11.0882 15.9429 12.5803ZM14.2842 8.19741C14.7443 7.69882 15.0544 7.00498 14.9699 6.31445C14.3063 6.33825 13.5041 6.70991 13.0285 7.20821C12.6018 7.6494 12.2286 8.35547 12.3293 9.03255C13.0688 9.08379 13.8241 8.69632 14.2842 8.19741Z" fill="white"/>
<path fill-rule="evenodd" clip-rule="evenodd" d="M20.9453 7.34457C21.2865 7.29151 21.6625 7.24386 22.0742 7.20135C22.4855 7.15884 22.938 7.1377 23.4322 7.1377C24.1377 7.1377 24.7459 7.2146 25.2571 7.36842C25.7688 7.52223 26.1888 7.74236 26.5176 8.02884C26.8 8.28336 27.0209 8.58558 27.1793 8.93567C27.3377 9.28581 27.4166 9.68901 27.4166 10.1453C27.4166 10.6969 27.3083 11.1797 27.0907 11.5934C26.8735 12.0072 26.5768 12.3546 26.2005 12.6356C25.8239 12.9167 25.3774 13.126 24.8601 13.2641C24.3425 13.4019 23.7784 13.471 23.1669 13.471C22.6145 13.471 22.1503 13.4339 21.7744 13.3597V17.943H20.9453V7.34457ZM21.7744 12.6917C21.9742 12.7445 22.1975 12.7816 22.4444 12.8027C22.6914 12.8238 22.9557 12.8344 23.2377 12.8344C24.2957 12.8344 25.1158 12.6115 25.6976 12.1661C26.2794 11.7207 26.5704 11.0681 26.5704 10.2089C26.5704 9.79518 26.4942 9.43416 26.3415 9.12658C26.1885 8.81867 25.9713 8.56686 25.6892 8.37053C25.4072 8.17421 25.072 8.02586 24.684 7.92482C24.2957 7.82407 23.8667 7.77372 23.3961 7.77372C23.0202 7.77372 22.6967 7.78701 22.4264 7.81352C22.156 7.84007 21.9385 7.86934 21.7741 7.90098L21.7744 12.6917Z" fill="white"/>
<path fill-rule="evenodd" clip-rule="evenodd" d="M34.0109 16.1283C34.0109 16.436 34.0165 16.7439 34.0282 17.0514C34.0399 17.3591 34.075 17.6558 34.1342 17.9423H33.3582L33.2349 16.8602H33.1992C33.0936 17.0089 32.9582 17.1573 32.7938 17.3057C32.6294 17.454 32.4382 17.5895 32.221 17.7116C32.0035 17.8337 31.7565 17.9317 31.4802 18.0059C31.2038 18.0798 30.9014 18.1172 30.5722 18.1172C30.1609 18.1172 29.799 18.056 29.4872 17.9345C29.1757 17.8123 28.9201 17.6531 28.7203 17.4571C28.5204 17.2605 28.3707 17.0352 28.2708 16.7806C28.1709 16.5261 28.1211 16.2716 28.1211 16.0167C28.1211 15.1151 28.5411 14.4202 29.3816 13.932C30.2224 13.4438 31.4892 13.2106 33.1824 13.2318V13.0249C33.1824 12.8231 33.1617 12.5921 33.1206 12.3322C33.0792 12.0722 32.9883 11.8255 32.8469 11.5924C32.7059 11.3593 32.4944 11.163 32.2124 11.004C31.9303 10.8448 31.548 10.7652 31.0661 10.7652C30.7016 10.7652 30.3403 10.8156 29.9818 10.9163C29.6232 11.017 29.297 11.1575 29.0033 11.3379L28.7386 10.7809C29.1146 10.5478 29.5029 10.3807 29.9022 10.28C30.3022 10.1793 30.7193 10.1289 31.1544 10.1289C31.7422 10.1289 32.2214 10.2191 32.5916 10.3994C32.9619 10.5798 33.253 10.8131 33.4645 11.0993C33.676 11.3858 33.8204 11.7067 33.8966 12.0623C33.9728 12.4178 34.0115 12.7707 34.0115 13.1205V16.1283H34.0109ZM33.1821 13.8527C32.735 13.8418 32.2675 13.8578 31.7796 13.9003C31.292 13.9426 30.8422 14.0357 30.4309 14.1787C30.0192 14.322 29.6787 14.5315 29.4083 14.8075C29.138 15.0834 29.0026 15.4492 29.0026 15.9055C29.0026 16.4462 29.1731 16.8443 29.5143 17.0988C29.8548 17.3533 30.2367 17.4809 30.6601 17.4809C31.001 17.4809 31.3067 17.4387 31.5771 17.3533C31.8474 17.2683 32.082 17.1543 32.2822 17.0114C32.4824 16.8684 32.6494 16.7064 32.7848 16.5261C32.9205 16.3455 33.023 16.1603 33.0939 15.9688C33.1527 15.7565 33.1824 15.6027 33.1824 15.5068L33.1821 13.8527Z" fill="white"/>
<path fill-rule="evenodd" clip-rule="evenodd" d="M35.6322 10.304L37.7829 15.2691C37.9009 15.545 38.0125 15.8288 38.1185 16.1207C38.2244 16.4121 38.3182 16.6804 38.4004 16.9241H38.4359C38.5184 16.691 38.612 16.4283 38.7179 16.1364C38.8238 15.8448 38.9415 15.545 39.0705 15.2368L41.0812 10.3037H41.9624L39.512 15.9057C39.2647 16.4995 39.0327 17.0384 38.8152 17.5209C38.598 18.0037 38.3771 18.4386 38.1539 18.8258C37.9303 19.213 37.7044 19.555 37.4745 19.8524C37.2456 20.1491 36.9892 20.4093 36.7076 20.6319C36.3788 20.897 36.0757 21.0909 35.7993 21.213C35.5233 21.3352 35.3382 21.4121 35.2439 21.4437L34.9612 20.8231C35.1731 20.7381 35.4083 20.6268 35.667 20.4889C35.9256 20.3509 36.1786 20.1708 36.4252 19.9479C36.6371 19.7571 36.8693 19.5053 37.1219 19.1919C37.3745 18.8792 37.6008 18.4998 37.8009 18.0541C37.8715 17.8843 37.9069 17.7727 37.9069 17.7197C37.9069 17.6458 37.8718 17.5342 37.8009 17.3855L34.75 10.3037L35.6322 10.304Z" fill="white"/>
</g>
<defs>
<clipPath id="clip0_779_2100">
<rect width="50" height="28" fill="white"/>
</clipPath>
</defs>
</svg>
