<svg width="52" height="32" viewBox="0 0 52 32" fill="none" xmlns="http://www.w3.org/2000/svg">
<path d="M49.92 2H2.08C0.931248 2 0 2.83574 0 3.86667V28.1333C0 29.1643 0.931248 30 2.08 30H49.92C51.0688 30 52 29.1643 52 28.1333V3.86667C52 2.83574 51.0688 2 49.92 2Z" fill="#00457C"/>
<path fill-rule="evenodd" clip-rule="evenodd" d="M40.7819 11.7304L39.7331 18.574C39.7127 18.7065 39.8125 18.8264 39.9434 18.8264H40.9983C41.173 18.8264 41.3219 18.696 41.3489 18.5189L42.3831 11.7983C42.4035 11.6658 42.3037 11.5459 42.1726 11.5459H40.9924C40.8873 11.5459 40.798 11.624 40.7819 11.7304Z" fill="white"/>
<path fill-rule="evenodd" clip-rule="evenodd" d="M27.6313 13.9697H26.4014C26.2837 13.9697 26.1737 14.0296 26.1078 14.1296L24.411 16.6924L23.6921 14.2296C23.6469 14.0755 23.5085 13.9697 23.3517 13.9697H22.1429C21.9969 13.9697 21.8941 14.1171 21.9413 14.2587L23.2954 18.336L22.0217 20.1794C21.9218 20.324 22.0226 20.5241 22.1956 20.5241H23.4242C23.5405 20.5241 23.6496 20.4656 23.7161 20.3676L27.8062 14.3127C27.9041 14.1678 27.8033 13.9697 27.6313 13.9697Z" fill="white"/>
<path fill-rule="evenodd" clip-rule="evenodd" d="M37.6324 16.4127C37.5141 17.1297 36.9592 17.6113 36.2512 17.6113C35.8964 17.6113 35.612 17.4941 35.4295 17.2724C35.2483 17.0527 35.1804 16.7395 35.2377 16.3911C35.3478 15.6801 35.9119 15.1833 36.609 15.1833C36.9566 15.1833 37.2386 15.3016 37.4248 15.5253C37.6123 15.7507 37.6861 16.0656 37.6324 16.4127ZM39.3377 13.9699H38.1141C38.0093 13.9699 37.92 14.0479 37.9035 14.1544L37.8498 14.5051L37.7642 14.3781C37.4993 13.9837 36.9085 13.8516 36.3188 13.8516C34.9669 13.8516 33.8121 14.9025 33.5874 16.3762C33.4705 17.1115 33.6365 17.8141 34.0431 18.3044C34.4163 18.7549 34.9491 18.9424 35.584 18.9424C36.6739 18.9424 37.2782 18.2246 37.2782 18.2246L37.2235 18.5734C37.2031 18.7059 37.3029 18.8258 37.434 18.8258H38.5358C38.7108 18.8258 38.8593 18.6957 38.8867 18.5187L39.5483 14.2223C39.5687 14.0898 39.4685 13.9699 39.3377 13.9699Z" fill="white"/>
<path fill-rule="evenodd" clip-rule="evenodd" d="M19.4058 16.4127C19.2875 17.1297 18.7327 17.6113 18.0247 17.6113C17.6698 17.6113 17.3855 17.4941 17.203 17.2724C17.022 17.0527 16.9539 16.7395 17.0112 16.3911C17.1213 15.6801 17.6853 15.1833 18.3825 15.1833C18.7301 15.1833 19.0121 15.3016 19.1982 15.5253C19.3857 15.7507 19.4595 16.0656 19.4058 16.4127ZM21.1112 13.9699H19.8875C19.7827 13.9699 19.6934 14.0479 19.677 14.1544L19.6233 14.5051L19.538 14.3781C19.2727 13.9837 18.682 13.8516 18.0922 13.8516C16.7404 13.8516 15.5855 14.9025 15.3609 16.3762C15.2439 17.1115 15.4099 17.8141 15.8165 18.3044C16.1898 18.7549 16.7226 18.9424 17.3575 18.9424C18.4474 18.9424 19.0517 18.2246 19.0517 18.2246L18.9969 18.5734C18.9765 18.7059 19.0764 18.8258 19.2075 18.8258H20.3092C20.4842 18.8258 20.6328 18.6957 20.6601 18.5187L21.3217 14.2223C21.3422 14.0898 21.242 13.9699 21.1112 13.9699Z" fill="white"/>
<path fill-rule="evenodd" clip-rule="evenodd" d="M13.7683 13.9996C13.6286 14.9404 12.9281 14.9404 12.2504 14.9404H11.865L12.1355 13.1839C12.1516 13.0778 12.2409 12.9997 12.3456 12.9997H12.5226C12.9838 12.9997 13.4194 12.9997 13.6441 13.269C13.7786 13.4302 13.8191 13.6695 13.7683 13.9996ZM13.4735 11.5449H10.918C10.7431 11.5449 10.5945 11.6754 10.5671 11.8524L9.5339 18.573C9.51352 18.7055 9.6133 18.8255 9.74414 18.8255H10.9645C11.1391 18.8255 11.2877 18.6951 11.3151 18.5183L11.5941 16.705C11.6211 16.528 11.7701 16.3975 11.9447 16.3975H12.7532C14.4365 16.3975 15.4081 15.5621 15.6618 13.906C15.7761 13.1821 15.6664 12.6131 15.336 12.2147C14.9726 11.7768 14.3285 11.5449 13.4735 11.5449Z" fill="white"/>
<path fill-rule="evenodd" clip-rule="evenodd" d="M31.9949 13.9996C31.8552 14.9404 31.1547 14.9404 30.477 14.9404H30.0915L30.362 13.1839C30.3781 13.0778 30.4674 12.9997 30.5722 12.9997H30.7491C31.2104 12.9997 31.646 12.9997 31.8707 13.269C32.0051 13.4302 32.0456 13.6695 31.9949 13.9996ZM31.7 11.5449H29.1446C28.9696 11.5449 28.8211 11.6754 28.7937 11.8524L27.7605 18.573C27.74 18.7055 27.8402 18.8255 27.9707 18.8255H29.282C29.4042 18.8255 29.5083 18.7343 29.5274 18.6106L29.8207 16.705C29.8477 16.528 29.9966 16.3975 30.1712 16.3975H30.9798C32.6631 16.3975 33.6347 15.5621 33.8884 13.906C34.0027 13.1821 33.893 12.6131 33.5625 12.2147C33.1991 11.7768 32.555 11.5449 31.7 11.5449Z" fill="white"/>
</svg>
