<svg width="19" height="22" viewBox="0 0 19 22" fill="none" xmlns="http://www.w3.org/2000/svg">
<path d="M17.9068 5.15392C16.8182 4.91897 15.8326 4.33932 15.0934 3.49947C14.3542 2.65962 13.9002 1.60349 13.7976 0.485036V0H10.0426V15.0372C10.0403 15.7029 9.83133 16.3512 9.44507 16.8909C9.0588 17.4306 8.51466 17.8346 7.88912 18.0461C7.26358 18.2577 6.58807 18.2661 5.95753 18.0703C5.32698 17.8744 4.7731 17.4841 4.3737 16.9543C3.9681 16.4156 3.74311 15.7605 3.73134 15.084C3.71958 14.4075 3.92165 13.7449 4.30827 13.1921C4.69488 12.6394 5.24593 12.2252 5.88151 12.0098C6.51709 11.7943 7.20415 11.7888 7.84307 11.9939V8.14443C6.41832 7.94569 4.96764 8.20129 3.69394 8.87547C2.42024 9.54966 1.38723 10.6087 0.739392 11.9045C0.091557 13.2003 -0.138697 14.668 0.0808378 16.1023C0.300372 17.5367 0.958714 18.8659 1.96378 19.9041C2.92225 20.8937 4.15122 21.5726 5.49381 21.8543C6.83641 22.1359 8.23171 22.0074 9.50163 21.4853C10.7715 20.9631 11.8585 20.071 12.6236 18.9227C13.3888 17.7744 13.7975 16.4221 13.7976 15.0383V7.35474C15.3151 8.44946 17.1346 9.03646 19 9.03312V5.26831C18.6326 5.26877 18.2662 5.23043 17.9068 5.15392Z" fill="#1E1E1E"/>
</svg>
