<svg width="50" height="30" viewBox="0 0 50 30" fill="none" xmlns="http://www.w3.org/2000/svg">
<path d="M48 1H2C0.89543 1 0 1.83574 0 2.86667V27.1333C0 28.1643 0.89543 29 2 29H48C49.1046 29 50 28.1643 50 27.1333V2.86667C50 1.83574 49.1046 1 48 1Z" fill="#26337A"/>
<path fill-rule="evenodd" clip-rule="evenodd" d="M20.7461 19.7733L22.2835 10.2363H24.7409L23.2037 19.7733H20.7461Z" fill="white"/>
<path fill-rule="evenodd" clip-rule="evenodd" d="M32.116 10.4705C31.6301 10.2791 30.8659 10.0703 29.9139 10.0703C27.4843 10.0703 25.7741 11.3646 25.7599 13.2178C25.7444 14.5886 26.9803 15.3532 27.912 15.8088C28.8696 16.2758 29.1914 16.5747 29.1876 16.9923C29.181 17.631 28.4232 17.9237 27.7167 17.9237C26.7328 17.9237 26.2101 17.7796 25.4019 17.4236L25.0858 17.2717L24.7422 19.4065C25.3152 19.6722 26.3775 19.9027 27.48 19.9148C30.0621 19.9148 31.7399 18.6363 31.7595 16.6572C31.7684 15.5702 31.1136 14.7463 29.6954 14.066C28.8366 13.6237 28.3095 13.3308 28.3156 12.8832C28.3161 12.4868 28.7608 12.0625 29.7233 12.0625C30.5272 12.0495 31.1091 12.2351 31.5625 12.4289L31.7832 12.5379L32.116 10.4705Z" fill="white"/>
<path fill-rule="evenodd" clip-rule="evenodd" d="M35.3908 16.3921C35.5945 15.844 36.3698 13.7264 36.3698 13.7264C36.3554 13.7516 36.5723 13.174 36.6964 12.8165L36.8623 13.639C36.8623 13.639 37.3338 15.9154 37.4309 16.3921C37.0484 16.3921 35.8707 16.3921 35.3908 16.3921ZM38.4225 10.2461H36.5234C35.9343 10.2461 35.4934 10.4148 35.2354 11.0366L31.5859 19.7768H34.167C34.167 19.7768 34.5881 18.601 34.6837 18.343C34.9652 18.343 37.4733 18.3479 37.8312 18.3479C37.9049 18.6807 38.1305 19.7768 38.1305 19.7768H40.4114L38.4225 10.2461Z" fill="white"/>
<path fill-rule="evenodd" clip-rule="evenodd" d="M18.6843 10.2441L16.279 16.7461L16.0214 15.4244C15.5732 13.9016 14.1779 12.251 12.6172 11.424L14.8177 19.7648L17.4185 19.7633L21.2885 10.2441H18.6843Z" fill="white"/>
<path fill-rule="evenodd" clip-rule="evenodd" d="M14.0463 10.2383H10.0834L10.0508 10.4359C13.1344 11.2259 15.1746 13.1328 16.0215 15.425L15.1603 11.0429C15.0117 10.4385 14.58 10.2594 14.0463 10.2383Z" fill="#EC982D"/>
</svg>
