<svg width="27" height="30" viewBox="0 0 27 30" fill="none" xmlns="http://www.w3.org/2000/svg">
<path d="M13.099 29.5646C13.0174 29.5646 12.9372 29.5436 12.8661 29.5041L0.238091 22.3482C0.0907637 22.2641 0 22.1075 0 21.9378V7.62604C0 7.45766 0.0881338 7.30376 0.234144 7.21827C0.378841 7.13408 0.557739 7.13276 0.703739 7.21564L13.3318 14.3715C13.4791 14.4557 13.5699 14.6122 13.5699 14.782V29.0937C13.5699 29.2187 13.5212 29.3384 13.4318 29.4265C13.3436 29.516 13.2239 29.5646 13.099 29.5646ZM0.941695 21.6629L12.6279 28.286V15.0569L0.941695 8.43507V21.6629Z" fill="#898989"/>
<path d="M13.0959 29.5646C12.8355 29.5646 12.625 29.3542 12.625 29.0937V14.782C12.625 14.6123 12.7158 14.4557 12.8631 14.3715L25.4911 7.21564C25.6371 7.13277 25.816 7.13408 25.962 7.21827C26.1067 7.30377 26.1949 7.45899 26.1949 7.62604V21.9378C26.1949 22.1075 26.1041 22.2654 25.9568 22.3482L13.3287 29.5041C13.2577 29.5449 13.1775 29.5646 13.0959 29.5646ZM13.5668 15.0569V28.286L25.253 21.6629V8.43507L13.5668 15.0569Z" fill="#898989"/>
<path d="M13.099 15.2543C13.0174 15.2543 12.9372 15.2333 12.8661 15.1938L0.238091 8.03791C0.0907637 7.95373 0 7.79719 0 7.62749C0 7.45778 0.0907637 7.30126 0.238091 7.21706L12.8661 0.0611677C13.0108 -0.0203892 13.1871 -0.0203892 13.3318 0.0611677L25.9598 7.21706C26.1072 7.30124 26.1992 7.45778 26.1992 7.62749C26.1992 7.79719 26.1072 7.95371 25.9598 8.03791L13.3318 15.1938C13.2608 15.2333 13.1805 15.2543 13.099 15.2543ZM1.42729 7.62765L13.099 14.2417L24.7706 7.62765L13.099 1.01359L1.42729 7.62765Z" fill="#898989"/>
<path d="M13.0969 15.2534C12.8825 15.2534 12.6957 15.1101 12.6404 14.9022C12.5865 14.6957 12.6772 14.4773 12.864 14.3721L25.4921 7.21621C25.7183 7.09256 26.0024 7.1728 26.1287 7.39774C26.2563 7.62136 26.18 7.9068 25.9564 8.03702L13.3284 15.1929C13.2586 15.2324 13.1784 15.2534 13.0969 15.2534Z" fill="#898989"/>
<path d="M7.95292 12.3383C7.87137 12.3383 7.79113 12.3173 7.72009 12.2765L5.25894 10.8821C5.1103 10.7979 5.01953 10.6414 5.01953 10.4717C5.01953 10.3007 5.1103 10.1442 5.25894 10.0613L17.9345 2.93031C18.0778 2.84875 18.2541 2.84875 18.3988 2.93031L20.9718 4.3891C21.1204 4.47197 21.2125 4.63114 21.2112 4.80084C21.2099 4.97185 21.1165 5.12838 20.9678 5.21127L8.18049 12.2789C8.11077 12.3171 8.03316 12.3383 7.95292 12.3383ZM6.45073 10.473L7.9569 11.3254L19.7734 4.79552L18.1646 3.88263L6.45073 10.473Z" fill="#898989"/>
<path d="M7.88322 15.5379C7.80692 15.5379 7.73194 15.5195 7.66486 15.484L5.27341 14.2265C5.11819 14.1449 5.01953 13.9844 5.01953 13.8095V10.4709C5.01953 10.2105 5.23 10 5.49044 10C5.75089 10 5.96266 10.2105 5.96266 10.4709V13.5253L7.42805 14.2962L7.48067 11.8561C7.48593 11.5956 7.70166 11.3891 7.96212 11.3943C8.22257 11.4009 8.42909 11.6166 8.42383 11.8758L8.35412 15.0775V15.0788C8.34885 15.3353 8.1397 15.5405 7.88321 15.5405L7.88322 15.5379Z" fill="#898989"/>
</svg>
