<svg width="33" height="28" viewBox="0 0 33 28" fill="none" xmlns="http://www.w3.org/2000/svg">
<path fill-rule="evenodd" clip-rule="evenodd" d="M11.7021 4.54555C11.7021 2.58909 13.311 1 15.2919 1H27.9209C29.9018 1 31.5107 2.58909 31.5107 4.54555V11.6367C31.5107 13.5953 29.9018 15.1822 27.9209 15.1822H25.4735L27.549 19.506L22.1016 15.1822H15.2919C13.311 15.1822 11.7021 13.5953 11.7021 11.6367V8.0085V4.54555Z" stroke="#898989" stroke-miterlimit="1.41421" stroke-linejoin="round"/>
<path fill-rule="evenodd" clip-rule="evenodd" d="M11.7098 8.01758V11.637C11.7098 13.5957 13.3187 15.1826 15.2996 15.1826H20.8086V18.6564C20.8086 20.6129 19.1997 22.202 17.2188 22.202H10.4091L4.96171 26.5258L7.43778 22.202H4.58975C2.60889 22.202 1 20.6129 1 18.6564V11.5631C1 9.60666 2.60889 8.01758 4.58975 8.01758H11.7098Z" stroke="#898989" stroke-miterlimit="1.41421" stroke-linejoin="round"/>
</svg>
